<svg width="152" height="31" viewBox="0 0 152 31" fill="none" xmlns="http://www.w3.org/2000/svg">
<g clip-path="url(#clip0_8801_1863)">
<path d="M20.7471 19.3745H35.6216V15.5H18.9854L20.7471 19.3745Z" fill="#9A0FF1"/>
<path d="M17.2227 11.6254H35.6207V7.75098H15.4609L17.2227 11.6254Z" fill="#9A0FF1"/>
<path d="M35.6205 0H11.9395L13.6991 3.87447H35.6205V0Z" fill="#9A0FF1"/>
<path d="M12.33 30.9995H16.246L12.7225 23.2506H22.508L20.7463 19.374H10.9607L9.199 15.4996H18.9845L17.2228 11.6251H7.43726L5.67553 7.75061H15.4611L13.6993 3.87402H0L12.33 30.9995Z" fill="#9A0FF1"/>
<path d="M47.404 8.09766H45.3564V23.6821H48.2806V17.2254H56.2191V14.5544H48.2806V10.7707H57.1191V8.09766H48.2806H47.404Z" fill="#070707"/>
<path d="M69.6451 13.017C69.1503 12.542 68.5765 12.1746 67.926 11.9149C67.2734 11.6552 66.5439 11.5264 65.7334 11.5264C64.9997 11.5264 64.2873 11.6784 63.5963 11.9824C62.9074 12.2865 62.2995 12.7109 61.7749 13.2514C61.2502 13.794 60.83 14.4423 60.5143 15.2003C60.1987 15.9583 60.043 16.7965 60.043 17.7171C60.043 18.6377 60.2008 19.4569 60.5143 20.2212C60.83 20.9856 61.248 21.6422 61.7749 22.1912C62.2995 22.7402 62.9074 23.1667 63.5963 23.4707C64.2852 23.7748 64.9976 23.9268 65.7334 23.9268C66.5439 23.9268 67.2734 23.7938 67.926 23.5256C68.5787 23.2575 69.1524 22.888 69.6451 22.4129L70.0951 23.6819H72.5692V11.7713H69.6451V13.017ZM69.4083 19.1191C69.2505 19.5498 69.0266 19.9235 68.7344 20.2423C68.4421 20.5612 68.0902 20.8103 67.6765 20.9877C67.2648 21.165 66.8105 21.2558 66.3157 21.2558C65.8209 21.2558 65.3452 21.1672 64.9336 20.9877C64.522 20.8103 64.1679 20.5612 63.8757 20.2423C63.5835 19.9235 63.3596 19.5498 63.2017 19.1191C63.0439 18.6883 62.965 18.2217 62.965 17.7171C62.965 17.2124 63.0439 16.7669 63.2017 16.3362C63.3596 15.9055 63.5835 15.5317 63.8757 15.2129C64.1679 14.8941 64.5198 14.6449 64.9336 14.4676C65.3452 14.2902 65.8059 14.1994 66.3157 14.1994C66.8254 14.1994 67.2648 14.2881 67.6765 14.4676C68.0881 14.6449 68.4421 14.8941 68.7344 15.2129C69.0266 15.5317 69.2505 15.9076 69.4083 16.3362C69.5662 16.7669 69.6451 17.2272 69.6451 17.7171C69.6451 18.2069 69.5662 18.6883 69.4083 19.1191Z" fill="#070707"/>
<path d="M85.859 12.9727C85.3941 12.5124 84.8395 12.1577 84.1954 11.9043C83.5513 11.6531 82.8389 11.5264 82.0583 11.5264C81.2776 11.5264 80.6186 11.6594 79.9894 11.9275C79.3602 12.1957 78.8355 12.5652 78.4154 13.0403L77.9653 11.7713H75.4912V23.6819H78.4154V16.9147C78.4154 15.9942 78.6841 15.253 79.2258 14.6893C79.7654 14.1255 80.4842 13.8426 81.3843 13.8426C82.2843 13.8426 83.0287 14.1255 83.5769 14.6893C84.125 15.253 84.398 15.9963 84.398 16.9147V23.6819H87.3222V16.8028C87.3222 16.0005 87.1942 15.2784 86.9404 14.6323C86.6844 13.9862 86.3261 13.433 85.8611 12.9727H85.859Z" fill="#070707"/>
<path d="M99.8472 13.017C99.3524 12.542 98.7787 12.1746 98.126 11.9149C97.4734 11.6552 96.7439 11.5264 95.9334 11.5264C95.1976 11.5264 94.4874 11.6784 93.7963 11.9824C93.1074 12.2865 92.4995 12.7109 91.9749 13.2514C91.4502 13.794 91.03 14.4423 90.7165 15.2003C90.4008 15.9583 90.2451 16.7965 90.2451 17.7171C90.2451 18.6377 90.4029 19.4569 90.7165 20.2212C91.0321 20.9856 91.4502 21.6422 91.9749 22.1912C92.4995 22.7402 93.1074 23.1667 93.7963 23.4707C94.4852 23.7748 95.1976 23.9268 95.9334 23.9268C96.7439 23.9268 97.4734 23.7938 98.126 23.5256C98.7787 23.2575 99.3524 22.888 99.8472 22.4129L100.297 23.6819H102.771V11.7713H99.8472V13.017ZM99.6126 19.1191C99.4548 19.5498 99.2308 19.9235 98.9386 20.2423C98.6464 20.5612 98.2945 20.8103 97.8829 20.9877C97.4712 21.165 97.0169 21.2558 96.5221 21.2558C96.0273 21.2558 95.5517 21.1672 95.14 20.9877C94.7284 20.8103 94.3765 20.5612 94.0843 20.2423C93.7921 19.9235 93.5681 19.5498 93.4103 19.1191C93.2524 18.6883 93.1735 18.2217 93.1735 17.7171C93.1735 17.2124 93.2524 16.7669 93.4103 16.3362C93.5681 15.9055 93.7921 15.5317 94.0843 15.2129C94.3765 14.8941 94.7284 14.6449 95.14 14.4676C95.5517 14.2902 96.0145 14.1994 96.5221 14.1994C97.0297 14.1994 97.4712 14.2881 97.8829 14.4676C98.2945 14.6449 98.6464 14.8941 98.9386 15.2129C99.2308 15.5317 99.4548 15.9076 99.6126 16.3362C99.7704 16.7669 99.8494 17.2272 99.8494 17.7171C99.8494 18.2069 99.7704 18.6883 99.6126 19.1191Z" fill="#070707"/>
<path d="M112.15 21.3674C111.61 21.3674 111.185 21.2217 110.878 20.9324C110.571 20.6432 110.418 20.1048 110.418 19.3172V13.9964H115.074V11.7709H110.418V8.43066H107.493V11.7709H105.693V13.9964H107.493V19.3172C107.493 20.8459 107.839 21.9966 108.528 22.7673C109.217 23.54 110.349 23.9243 111.923 23.9243C113.062 23.9243 114.404 23.7385 115.948 23.3669V20.584C115.182 20.7762 114.479 20.9557 113.834 21.1182C113.19 21.2829 112.627 21.3632 112.147 21.3632L112.15 21.3674Z" fill="#070707"/>
<path d="M121.798 11.7715H118.874V23.6821H121.798V11.7715Z" fill="#070707"/>
<path d="M120.335 7.07324C119.825 7.07324 119.415 7.22104 119.108 7.51875C118.801 7.81647 118.647 8.21764 118.647 8.72016C118.647 9.22268 118.801 9.63018 119.108 9.93423C119.415 10.2383 119.825 10.3903 120.335 10.3903C120.844 10.3903 121.252 10.2383 121.561 9.93423C121.868 9.63018 122.022 9.22479 122.022 8.72016C122.022 8.21553 121.868 7.81435 121.561 7.51875C121.254 7.22315 120.844 7.07324 120.335 7.07324Z" fill="#070707"/>
<path d="M135.514 13.2408C134.96 12.6919 134.296 12.2696 133.524 11.9719C132.752 11.6742 131.901 11.5264 130.971 11.5264C130.041 11.5264 129.173 11.6742 128.408 11.9719C127.644 12.2696 126.987 12.6919 126.439 13.2408C125.891 13.7898 125.469 14.4423 125.168 15.2003C124.867 15.9583 124.718 16.8028 124.718 17.7382C124.718 18.6736 124.867 19.5202 125.168 20.2761C125.469 21.0341 125.891 21.6823 126.439 22.225C126.987 22.7676 127.642 23.1857 128.408 23.4834C129.173 23.7811 130.026 23.9289 130.971 23.9289C131.916 23.9289 132.752 23.7811 133.524 23.4834C134.296 23.1878 134.96 22.7676 135.514 22.225C136.069 21.6823 136.495 21.0341 136.796 20.2761C137.097 19.5202 137.246 18.6736 137.246 17.7382C137.246 16.8028 137.097 15.9583 136.796 15.2003C136.495 14.4444 136.069 13.7898 135.514 13.2408ZM134.087 19.1402C133.93 19.5709 133.706 19.9446 133.413 20.2656C133.121 20.5844 132.769 20.8378 132.356 21.0215C131.944 21.2073 131.481 21.3002 130.973 21.3002C130.466 21.3002 130.003 21.2073 129.591 21.0215C129.18 20.8357 128.828 20.5844 128.536 20.2656C128.243 19.9467 128.015 19.5709 127.849 19.1402C127.685 18.7094 127.601 18.2428 127.601 17.7382C127.601 17.2336 127.685 16.7627 127.849 16.3256C128.013 15.8886 128.243 15.5085 128.536 15.1897C128.828 14.8709 129.18 14.6217 129.591 14.4444C130.003 14.267 130.466 14.1762 130.973 14.1762C131.481 14.1762 131.944 14.2649 132.356 14.4444C132.767 14.6217 133.121 14.8709 133.413 15.1897C133.706 15.5085 133.93 15.8886 134.087 16.3256C134.245 16.7627 134.324 17.2357 134.324 17.7382C134.324 18.2407 134.245 18.7094 134.087 19.1402Z" fill="#070707"/>
<path d="M151.617 14.6323C151.361 13.9862 151.003 13.433 150.538 12.9727C150.073 12.5124 149.518 12.1577 148.874 11.9043C148.23 11.6531 147.518 11.5264 146.737 11.5264C145.956 11.5264 145.297 11.6594 144.668 11.9275C144.039 12.1957 143.514 12.5652 143.094 13.0403L142.644 11.7713H140.17V23.6819H143.094V16.9147C143.094 15.9942 143.363 15.253 143.905 14.6893C144.444 14.1255 145.163 13.8426 146.063 13.8426C146.963 13.8426 147.707 14.1255 148.256 14.6893C148.804 15.253 149.077 15.9963 149.077 16.9147V23.6819H152.001V16.8028C152.001 16.0005 151.873 15.2784 151.619 14.6323H151.617Z" fill="#070707"/>
</g>
<defs>
<clipPath id="clip0_8801_1863">
<rect width="152" height="31" fill="white"/>
</clipPath>
</defs>
</svg>
